{
	"asset":{
		"generator":"Khronos glTF Blender I/O v4.0.44",
		"version":"2.0"
	},
	"extensionsUsed":[
		"KHR_materials_specular",
		"KHR_materials_ior"
	],
	"scene":0,
	"scenes":[
		{
			"name":"Scene",
			"nodes":[
				0
			]
		}
	],
	"nodes":[
		{
			"mesh":0,
			"name":"Upper.Rail.001"
		}
	],
	"materials":[
		{
			"doubleSided":true,
			"extensions":{
				"KHR_materials_specular":{
					"specularFactor":0.9999999403953552
				},
				"KHR_materials_ior":{
					"ior":1.4500000476837158
				}
			},
			"name":"Material",
			"normalTexture":{
				"index":0
			},
			"pbrMetallicRoughness":{
				"baseColorTexture":{
					"index":1
				},
				"metallicRoughnessTexture":{
					"index":2
				}
			}
		}
	],
	"meshes":[
		{
			"name":"Cube.042",
			"primitives":[
				{
					"attributes":{
						"POSITION":0,
						"NORMAL":1,
						"TEXCOORD_0":2
					},
					"indices":3,
					"material":0
				}
			]
		}
	],
	"textures":[
		{
			"sampler":0,
			"source":0
		},
		{
			"sampler":0,
			"source":1
		},
		{
			"sampler":0,
			"source":2
		}
	],
	"images":[
		{
			"mimeType":"image/jpeg",
			"name":"Lamp_4K_Normal",
			"uri":"Textures/Lamp_4K_Normal.jpg"
		},
		{
			"mimeType":"image/jpeg",
			"name":"Lamp_4K_Albedo",
			"uri":"Textures/Lamp_4K_Albedo.jpg"
		},
		{
			"mimeType":"image/jpeg",
			"name":"Lamp_4K_ARM",
			"uri":"Textures/Lamp_4K_ARM.jpg"
		}
	],
	"accessors":[
		{
			"bufferView":0,
			"componentType":5126,
			"count":12424,
			"max":[
				0.5599080920219421,
				0.007561159320175648,
				0.08817631751298904
			],
			"min":[
				-0.5599080920219421,
				-0.21037951111793518,
				-0.08967708796262741
			],
			"type":"VEC3"
		},
		{
			"bufferView":1,
			"componentType":5126,
			"count":12424,
			"type":"VEC3"
		},
		{
			"bufferView":2,
			"componentType":5126,
			"count":12424,
			"type":"VEC2"
		},
		{
			"bufferView":3,
			"componentType":5123,
			"count":49002,
			"type":"SCALAR"
		}
	],
	"bufferViews":[
		{
			"buffer":0,
			"byteLength":149088,
			"byteOffset":0,
			"target":34962
		},
		{
			"buffer":0,
			"byteLength":149088,
			"byteOffset":149088,
			"target":34962
		},
		{
			"buffer":0,
			"byteLength":99392,
			"byteOffset":298176,
			"target":34962
		},
		{
			"buffer":0,
			"byteLength":98004,
			"byteOffset":397568,
			"target":34963
		}
	],
	"samplers":[
		{
			"magFilter":9729,
			"minFilter":9987
		}
	],
	"buffers":[
		{
			"byteLength":495572,
			"uri":"lights.bin"
		}
	]
}
