{
	"asset":{
		"generator":"Khronos glTF Blender I/O v4.0.44",
		"version":"2.0"
	},
	"scene":0,
	"scenes":[
		{
			"name":"Scene",
			"nodes":[
				0,
				1,
				2,
				4
			]
		}
	],
	"nodes":[
		{
			"name":"RootNode"
		},
		{
			"name":"RootNode.001"
		},
		{
			"name":"RootNode.002"
		},
		{
			"mesh":0,
			"name":"Diffusion Pump",
			"translation":[
				0,
				3.1500000953674316,
				0
			]
		},
		{
			"children":[
				3
			],
			"name":"RootNode.003"
		}
	],
	"materials":[
		{
			"name":"Diffuse Pump.003",
			"normalTexture":{
				"index":0
			},
			"pbrMetallicRoughness":{
				"baseColorTexture":{
					"index":1
				},
				"metallicRoughnessTexture":{
					"index":2
				}
			}
		}
	],
	"meshes":[
		{
			"name":"Diffusion Pump.003",
			"primitives":[
				{
					"attributes":{
						"POSITION":0,
						"NORMAL":1,
						"TEXCOORD_0":2
					},
					"indices":3,
					"material":0
				}
			]
		}
	],
	"textures":[
		{
			"sampler":0,
			"source":0
		},
		{
			"sampler":0,
			"source":1
		},
		{
			"sampler":0,
			"source":2
		}
	],
	"images":[
		{
			"mimeType":"image/png",
			"name":"pump_normal",
			"uri":"Textures/pump_normal.png"
		},
		{
			"mimeType":"image/png",
			"name":"pump_baseColor",
			"uri":"Textures/pump_baseColor.png"
		},
		{
			"mimeType":"image/png",
			"name":"pump_occlusionRoughnessMetallic",
			"uri":"Textures/pump_occlusionRoughnessMetallic.png"
		}
	],
	"accessors":[
		{
			"bufferView":0,
			"componentType":5126,
			"count":13483,
			"max":[
				1.193223237991333,
				4.400663375854492,
				5.327786445617676
			],
			"min":[
				-1.2380167245864868,
				-3.158811569213867,
				-1.8764067888259888
			],
			"type":"VEC3"
		},
		{
			"bufferView":1,
			"componentType":5126,
			"count":13483,
			"type":"VEC3"
		},
		{
			"bufferView":2,
			"componentType":5126,
			"count":13483,
			"type":"VEC2"
		},
		{
			"bufferView":3,
			"componentType":5123,
			"count":40812,
			"type":"SCALAR"
		}
	],
	"bufferViews":[
		{
			"buffer":0,
			"byteLength":161796,
			"byteOffset":0,
			"target":34962
		},
		{
			"buffer":0,
			"byteLength":161796,
			"byteOffset":161796,
			"target":34962
		},
		{
			"buffer":0,
			"byteLength":107864,
			"byteOffset":323592,
			"target":34962
		},
		{
			"buffer":0,
			"byteLength":81624,
			"byteOffset":431456,
			"target":34963
		}
	],
	"samplers":[
		{
			"magFilter":9729,
			"minFilter":9987
		}
	],
	"buffers":[
		{
			"byteLength":513080,
			"uri":"pump.bin"
		}
	]
}
