{
	"asset":{
		"generator":"Khronos glTF Blender I/O v4.0.44",
		"version":"2.0"
	},
	"scene":0,
	"scenes":[
		{
			"name":"Scene",
			"nodes":[
				0,
				1,
				2,
				3,
				5
			]
		}
	],
	"nodes":[
		{
			"name":"RootNode"
		},
		{
			"name":"RootNode.001"
		},
		{
			"name":"RootNode.002"
		},
		{
			"name":"RootNode.003"
		},
		{
			"mesh":0,
			"name":"Tank",
			"scale":[
				0.8270570635795593,
				1,
				0.8270570635795593
			],
			"translation":[
				0,
				2.0298056602478027,
				0
			]
		},
		{
			"children":[
				4
			],
			"name":"RootNode.004"
		}
	],
	"materials":[
		{
			"name":"Tank.004",
			"normalTexture":{
				"index":0
			},
			"pbrMetallicRoughness":{
				"baseColorTexture":{
					"index":1
				},
				"metallicRoughnessTexture":{
					"index":2
				}
			}
		}
	],
	"meshes":[
		{
			"name":"Tank.004",
			"primitives":[
				{
					"attributes":{
						"POSITION":0,
						"NORMAL":1,
						"TEXCOORD_0":2
					},
					"indices":3,
					"material":0
				}
			]
		}
	],
	"textures":[
		{
			"sampler":0,
			"source":0
		},
		{
			"sampler":0,
			"source":1
		},
		{
			"sampler":0,
			"source":2
		}
	],
	"images":[
		{
			"mimeType":"image/png",
			"name":"Tank_normal",
			"uri":"Textures/Tank_normal.png"
		},
		{
			"mimeType":"image/png",
			"name":"Tank_baseColor",
			"uri":"Textures/Tank_baseColor.png"
		},
		{
			"mimeType":"image/png",
			"name":"Tank_occlusionRoughnessMetallic",
			"uri":"Textures/Tank_occlusionRoughnessMetallic.png"
		}
	],
	"accessors":[
		{
			"bufferView":0,
			"componentType":5126,
			"count":2543,
			"max":[
				1.1524276733398438,
				2.286294460296631,
				1.4680900573730469
			],
			"min":[
				-1.8312220573425293,
				-2.027819871902466,
				-3.1226553916931152
			],
			"type":"VEC3"
		},
		{
			"bufferView":1,
			"componentType":5126,
			"count":2543,
			"type":"VEC3"
		},
		{
			"bufferView":2,
			"componentType":5126,
			"count":2543,
			"type":"VEC2"
		},
		{
			"bufferView":3,
			"componentType":5123,
			"count":7575,
			"type":"SCALAR"
		}
	],
	"bufferViews":[
		{
			"buffer":0,
			"byteLength":30516,
			"byteOffset":0,
			"target":34962
		},
		{
			"buffer":0,
			"byteLength":30516,
			"byteOffset":30516,
			"target":34962
		},
		{
			"buffer":0,
			"byteLength":20344,
			"byteOffset":61032,
			"target":34962
		},
		{
			"buffer":0,
			"byteLength":15150,
			"byteOffset":81376,
			"target":34963
		}
	],
	"samplers":[
		{
			"magFilter":9729,
			"minFilter":9987
		}
	],
	"buffers":[
		{
			"byteLength":96528,
			"uri":"tank.bin"
		}
	]
}
