{
	"asset":{
		"generator":"Khronos glTF Blender I/O v4.0.44",
		"version":"2.0"
	},
	"scene":0,
	"scenes":[
		{
			"name":"Scene",
			"nodes":[
				0,
				2
			]
		}
	],
	"nodes":[
		{
			"name":"RootNode"
		},
		{
			"mesh":0,
			"name":"Trolley",
			"scale":[
				0.8447297215461731,
				0.8447297215461731,
				0.8447297215461731
			],
			"translation":[
				0,
				0.00770530104637146,
				0
			]
		},
		{
			"children":[
				1
			],
			"name":"RootNode.001"
		}
	],
	"materials":[
		{
			"name":"Trolly.001",
			"normalTexture":{
				"index":0
			},
			"pbrMetallicRoughness":{
				"baseColorTexture":{
					"index":1
				},
				"metallicRoughnessTexture":{
					"index":2
				}
			}
		}
	],
	"meshes":[
		{
			"name":"Trolley.001",
			"primitives":[
				{
					"attributes":{
						"POSITION":0,
						"NORMAL":1,
						"TEXCOORD_0":2
					},
					"indices":3,
					"material":0
				}
			]
		}
	],
	"textures":[
		{
			"sampler":0,
			"source":0
		},
		{
			"sampler":0,
			"source":1
		},
		{
			"sampler":0,
			"source":2
		}
	],
	"images":[
		{
			"mimeType":"image/png",
			"name":"Trolly_normal",
			"uri":"Textures/Trolly_normal.png"
		},
		{
			"mimeType":"image/png",
			"name":"Trolly_baseColor",
			"uri":"Textures/Trolly_baseColor.png"
		},
		{
			"mimeType":"image/png",
			"name":"Trolly_occlusionRoughnessMetallic",
			"uri":"Textures/Trolly_occlusionRoughnessMetallic.png"
		}
	],
	"accessors":[
		{
			"bufferView":0,
			"componentType":5126,
			"count":4048,
			"max":[
				3.099071979522705,
				3.6225168704986572,
				1.2760248184204102
			],
			"min":[
				-2.4440152645111084,
				0,
				-1.2760241031646729
			],
			"type":"VEC3"
		},
		{
			"bufferView":1,
			"componentType":5126,
			"count":4048,
			"type":"VEC3"
		},
		{
			"bufferView":2,
			"componentType":5126,
			"count":4048,
			"type":"VEC2"
		},
		{
			"bufferView":3,
			"componentType":5123,
			"count":7152,
			"type":"SCALAR"
		}
	],
	"bufferViews":[
		{
			"buffer":0,
			"byteLength":48576,
			"byteOffset":0,
			"target":34962
		},
		{
			"buffer":0,
			"byteLength":48576,
			"byteOffset":48576,
			"target":34962
		},
		{
			"buffer":0,
			"byteLength":32384,
			"byteOffset":97152,
			"target":34962
		},
		{
			"buffer":0,
			"byteLength":14304,
			"byteOffset":129536,
			"target":34963
		}
	],
	"samplers":[
		{
			"magFilter":9729,
			"minFilter":9987
		}
	],
	"buffers":[
		{
			"byteLength":143840,
			"uri":"trolley.bin"
		}
	]
}
