{
	"asset":{
		"generator":"Khronos glTF Blender I/O v4.0.44",
		"version":"2.0"
	},
	"scene":0,
	"scenes":[
		{
			"name":"Scene",
			"nodes":[
				0,
				1,
				2,
				3,
				4,
				6
			]
		}
	],
	"nodes":[
		{
			"name":"RootNode"
		},
		{
			"name":"RootNode.001"
		},
		{
			"name":"RootNode.002"
		},
		{
			"name":"RootNode.003"
		},
		{
			"name":"RootNode.004"
		},
		{
			"mesh":0,
			"name":"Extractor",
			"translation":[
				0,
				0,
				6.9000091552734375
			]
		},
		{
			"children":[
				5
			],
			"name":"RootNode.005"
		}
	],
	"materials":[
		{
			"name":"Extractor.005",
			"normalTexture":{
				"index":0
			},
			"pbrMetallicRoughness":{
				"baseColorTexture":{
					"index":1
				},
				"metallicRoughnessTexture":{
					"index":2
				}
			}
		}
	],
	"meshes":[
		{
			"name":"Extractor.005",
			"primitives":[
				{
					"attributes":{
						"POSITION":0,
						"NORMAL":1,
						"TEXCOORD_0":2
					},
					"indices":3,
					"material":0
				}
			]
		}
	],
	"textures":[
		{
			"sampler":0,
			"source":0
		},
		{
			"sampler":0,
			"source":1
		},
		{
			"sampler":0,
			"source":2
		}
	],
	"images":[
		{
			"mimeType":"image/png",
			"name":"Extractor_normal",
			"uri":"Textures/Extractor_normal.png"
		},
		{
			"mimeType":"image/png",
			"name":"Extractor_baseColor",
			"uri":"Textures/Extractor_baseColor.png"
		},
		{
			"mimeType":"image/png",
			"name":"Extractor_occlusionRoughnessMetallic",
			"uri":"Textures/Extractor_occlusionRoughnessMetallic.png"
		}
	],
	"accessors":[
		{
			"bufferView":0,
			"componentType":5126,
			"count":19146,
			"max":[
				1.7653354406356812,
				1.803932547569275,
				-5.90992546081543
			],
			"min":[
				-4.441361904144287,
				0.004174947738647461,
				-8.838521957397461
			],
			"type":"VEC3"
		},
		{
			"bufferView":1,
			"componentType":5126,
			"count":19146,
			"type":"VEC3"
		},
		{
			"bufferView":2,
			"componentType":5126,
			"count":19146,
			"type":"VEC2"
		},
		{
			"bufferView":3,
			"componentType":5123,
			"count":40218,
			"type":"SCALAR"
		}
	],
	"bufferViews":[
		{
			"buffer":0,
			"byteLength":229752,
			"byteOffset":0,
			"target":34962
		},
		{
			"buffer":0,
			"byteLength":229752,
			"byteOffset":229752,
			"target":34962
		},
		{
			"buffer":0,
			"byteLength":153168,
			"byteOffset":459504,
			"target":34962
		},
		{
			"buffer":0,
			"byteLength":80436,
			"byteOffset":612672,
			"target":34963
		}
	],
	"samplers":[
		{
			"magFilter":9729,
			"minFilter":9987
		}
	],
	"buffers":[
		{
			"byteLength":693108,
			"uri":"extractor.bin"
		}
	]
}
