{
	"asset":{
		"generator":"Khronos glTF Blender I/O v4.0.44",
		"version":"2.0"
	},
	"scene":0,
	"scenes":[
		{
			"name":"Scene",
			"nodes":[
				1
			]
		}
	],
	"nodes":[
		{
			"mesh":0,
			"name":"Control Box",
			"translation":[
				0,
				2.0762033462524414,
				0
			]
		},
		{
			"children":[
				0
			],
			"name":"RootNode"
		}
	],
	"materials":[
		{
			"name":"Control Box",
			"normalTexture":{
				"index":0
			},
			"pbrMetallicRoughness":{
				"baseColorTexture":{
					"index":1
				},
				"metallicRoughnessTexture":{
					"index":2
				}
			}
		}
	],
	"meshes":[
		{
			"name":"Control Box",
			"primitives":[
				{
					"attributes":{
						"POSITION":0,
						"NORMAL":1,
						"TEXCOORD_0":2
					},
					"indices":3,
					"material":0
				}
			]
		}
	],
	"textures":[
		{
			"sampler":0,
			"source":0
		},
		{
			"sampler":0,
			"source":1
		},
		{
			"sampler":0,
			"source":2
		}
	],
	"images":[
		{
			"mimeType":"image/png",
			"name":"control_box__normal",
			"uri":"Textures/control_box__normal.png"
		},
		{
			"mimeType":"image/png",
			"name":"control_box_baseColor",
			"uri":"Textures/control_box_baseColor.png"
		},
		{
			"mimeType":"image/png",
			"name":"control_box__occlusionRoughnessMetallic",
			"uri":"Textures/control_box__occlusionRoughnessMetallic.png"
		}
	],
	"accessors":[
		{
			"bufferView":0,
			"componentType":5126,
			"count":1093,
			"max":[
				0.6114792823791504,
				2.0362415313720703,
				1.8827729225158691
			],
			"min":[
				-0.5798722505569458,
				-2.036241054534912,
				-1.8827722072601318
			],
			"type":"VEC3"
		},
		{
			"bufferView":1,
			"componentType":5126,
			"count":1093,
			"type":"VEC3"
		},
		{
			"bufferView":2,
			"componentType":5126,
			"count":1093,
			"type":"VEC2"
		},
		{
			"bufferView":3,
			"componentType":5123,
			"count":2424,
			"type":"SCALAR"
		}
	],
	"bufferViews":[
		{
			"buffer":0,
			"byteLength":13116,
			"byteOffset":0,
			"target":34962
		},
		{
			"buffer":0,
			"byteLength":13116,
			"byteOffset":13116,
			"target":34962
		},
		{
			"buffer":0,
			"byteLength":8744,
			"byteOffset":26232,
			"target":34962
		},
		{
			"buffer":0,
			"byteLength":4848,
			"byteOffset":34976,
			"target":34963
		}
	],
	"samplers":[
		{
			"magFilter":9729,
			"minFilter":9987
		}
	],
	"buffers":[
		{
			"byteLength":39824,
			"uri":"control_box.bin"
		}
	]
}
