{
	"asset":{
		"generator":"Khronos glTF Blender I/O v4.0.44",
		"version":"2.0"
	},
	"scene":0,
	"scenes":[
		{
			"name":"Scene",
			"nodes":[
				0,
				1,
				3
			]
		}
	],
	"nodes":[
		{
			"name":"RootNode"
		},
		{
			"name":"RootNode.001"
		},
		{
			"mesh":0,
			"name":"Vacuum Brazing Furnace",
			"scale":[
				1.06417715549469,
				1.06417715549469,
				1.06417715549469
			],
			"translation":[
				0,
				1.2810012102127075,
				0
			]
		},
		{
			"children":[
				2
			],
			"name":"RootNode.002"
		}
	],
	"materials":[
		{
			"name":"Vaccuum Brazing Furnace.002",
			"normalTexture":{
				"index":0
			},
			"pbrMetallicRoughness":{
				"baseColorTexture":{
					"index":1
				},
				"metallicRoughnessTexture":{
					"index":2
				}
			}
		}
	],
	"meshes":[
		{
			"name":"Vacuum Brazing Furnace.002",
			"primitives":[
				{
					"attributes":{
						"POSITION":0,
						"NORMAL":1,
						"TEXCOORD_0":2
					},
					"indices":3,
					"material":0
				}
			]
		}
	],
	"textures":[
		{
			"sampler":0,
			"source":0
		},
		{
			"sampler":0,
			"source":1
		},
		{
			"sampler":0,
			"source":2
		}
	],
	"images":[
		{
			"mimeType":"image/png",
			"name":"furnace_normal",
			"uri":"Textures/furnace_normal.png"
		},
		{
			"mimeType":"image/png",
			"name":"furnace_baseColor",
			"uri":"Textures/furnace_baseColor.png"
		},
		{
			"mimeType":"image/png",
			"name":"furnace_occlusionRoughnessMetallic",
			"uri":"Textures/furnace_occlusionRoughnessMetallic.png"
		}
	],
	"accessors":[
		{
			"bufferView":0,
			"componentType":5126,
			"count":10135,
			"max":[
				0.7853720188140869,
				3.5348944664001465,
				1.5901743173599243
			],
			"min":[
				-5.96418571472168,
				-1.181730031967163,
				-1.9603638648986816
			],
			"type":"VEC3"
		},
		{
			"bufferView":1,
			"componentType":5126,
			"count":10135,
			"type":"VEC3"
		},
		{
			"bufferView":2,
			"componentType":5126,
			"count":10135,
			"type":"VEC2"
		},
		{
			"bufferView":3,
			"componentType":5123,
			"count":35874,
			"type":"SCALAR"
		}
	],
	"bufferViews":[
		{
			"buffer":0,
			"byteLength":121620,
			"byteOffset":0,
			"target":34962
		},
		{
			"buffer":0,
			"byteLength":121620,
			"byteOffset":121620,
			"target":34962
		},
		{
			"buffer":0,
			"byteLength":81080,
			"byteOffset":243240,
			"target":34962
		},
		{
			"buffer":0,
			"byteLength":71748,
			"byteOffset":324320,
			"target":34963
		}
	],
	"samplers":[
		{
			"magFilter":9729,
			"minFilter":9987
		}
	],
	"buffers":[
		{
			"byteLength":396068,
			"uri":"furnace.bin"
		}
	]
}
