{
	"asset":{
		"generator":"Khronos glTF Blender I/O v4.0.44",
		"version":"2.0"
	},
	"scene":0,
	"scenes":[
		{
			"name":"Scene",
			"nodes":[
				0
			]
		}
	],
	"nodes":[
		{
			"mesh":0,
			"name":"railroad mesh"
		}
	],
	"materials":[
		{
			"doubleSided":true,
			"name":"railroad",
			"normalTexture":{
				"index":0
			},
			"pbrMetallicRoughness":{
				"baseColorTexture":{
					"index":1
				},
				"metallicRoughnessTexture":{
					"index":2
				}
			}
		}
	],
	"meshes":[
		{
			"name":"railroad",
			"primitives":[
				{
					"attributes":{
						"POSITION":0,
						"NORMAL":1,
						"TEXCOORD_0":2
					},
					"indices":3,
					"material":0
				}
			]
		}
	],
	"textures":[
		{
			"sampler":0,
			"source":0
		},
		{
			"sampler":0,
			"source":1
		},
		{
			"sampler":0,
			"source":2
		}
	],
	"images":[
		{
			"mimeType":"image/png",
			"name":"railroad_Normal",
			"uri":"Textures/railroad_Normal.png"
		},
		{
			"mimeType":"image/png",
			"name":"railroad_BaseColor",
			"uri":"Textures/railroad_BaseColor.png"
		},
		{
			"mimeType":"image/png",
			"name":"railroad_ARM",
			"uri":"Textures/railroad_ARM.png"
		}
	],
	"accessors":[
		{
			"bufferView":0,
			"componentType":5126,
			"count":11596,
			"max":[
				2.305190086364746,
				0.6994669437408447,
				9.074820518493652
			],
			"min":[
				-2.305190086364746,
				0.0004988908767700195,
				-9.021210670471191
			],
			"type":"VEC3"
		},
		{
			"bufferView":1,
			"componentType":5126,
			"count":11596,
			"type":"VEC3"
		},
		{
			"bufferView":2,
			"componentType":5126,
			"count":11596,
			"type":"VEC2"
		},
		{
			"bufferView":3,
			"componentType":5123,
			"count":24468,
			"type":"SCALAR"
		}
	],
	"bufferViews":[
		{
			"buffer":0,
			"byteLength":139152,
			"byteOffset":0,
			"target":34962
		},
		{
			"buffer":0,
			"byteLength":139152,
			"byteOffset":139152,
			"target":34962
		},
		{
			"buffer":0,
			"byteLength":92768,
			"byteOffset":278304,
			"target":34962
		},
		{
			"buffer":0,
			"byteLength":48936,
			"byteOffset":371072,
			"target":34963
		}
	],
	"samplers":[
		{
			"magFilter":9729,
			"minFilter":9987
		}
	],
	"buffers":[
		{
			"byteLength":420008,
			"uri":"tracks.bin"
		}
	]
}
